# xmcd
#
# Track frame offsets: 
#        150
#        22635
#        43203
#        88828
#
# Disc length: 1481 seconds
#
# Revision: 1
# Processed by: cddbd v1.5.2PL0 Copyright (c) Steve Scherf et al.
# Submitted via: ExactAudioCopyFreeDBPlugin 1.0
#
DISCID=2605c704
DTITLE=OZROSAURUS - Phoenix (Will Rise)
DYEAR=2005
DGENRE=Hip-Hop
TTITLE0=The Phoenix (Will Rise)
TTITLE1=眩暈 (めまい)
TTITLE2=Medley ~live At Yokohama Bay Hall-west Fest 2004
TTITLE3=The Phoenix (Will Rise) ~instrumental
EXTD=YEAR: 2005
EXTT0=
EXTT1=
EXTT2=
EXTT3=
PLAYORDER=
